<?xml version="1.0" encoding="UTF-8" ?>
<!DOCTYPE svg PUBLIC "-//W3C//DTD SVG 1.1//EN" "http://www.w3.org/Graphics/SVG/1.1/DTD/svg11.dtd">
<svg width="256pt" height="159pt" viewBox="0 0 256 159" version="1.1" xmlns="http://www.w3.org/2000/svg">
    <g id="#b2b9c4ff">
        <path fill="#b2b9c4" opacity="1.00"
              d=" M 29.33 0.00 L 30.54 0.00 C 31.16 0.89 31.82 1.73 32.55 2.52 C 64.37 34.32 96.17 66.14 128.00 97.94 C 158.52 67.45 189.01 36.92 219.53 6.43 C 221.60 4.31 223.81 2.31 225.66 0.00 L 225.92 0.00 C 235.73 10.27 245.88 20.23 256.00 30.20 L 256.00 30.71 C 255.03 31.51 254.08 32.33 253.16 33.18 C 211.42 74.86 169.79 116.66 127.98 158.28 C 87.56 117.95 47.23 77.53 6.83 37.17 C 4.60 34.99 2.57 32.57 0.00 30.76 L 0.00 30.18 C 9.57 20.96 18.79 11.38 28.28 2.08 C 28.52 1.72 29.02 1.00 29.27 0.64 L 29.33 0.00 Z"/>
    </g>
</svg>
